<svg width="1584" height="396" viewBox="0 0 1584 396" xmlns="http://www.w3.org/2000/svg" role="img">
<title>LinkedIn cover — Proactive RAN Congestion Management, ML for 5G/LTE Networks</title>
<desc>Dark navy banner with hexagonal cell grid, signal wave with alert annotation, and key model results</desc>

<!-- Background -->
<rect width="1584" height="396" fill="#0a1628"/>

<!-- Subtle grid lines -->
<g opacity="0.06">
  <line x1="0" y1="0" x2="1584" y2="396" stroke="#4a9eff" stroke-width="1"/>
  <line x1="0" y1="99" x2="1584" y2="396" stroke="#4a9eff" stroke-width="1"/>
  <line x1="0" y1="198" x2="1584" y2="396" stroke="#4a9eff" stroke-width="1"/>
  <line x1="0" y1="297" x2="1584" y2="396" stroke="#4a9eff" stroke-width="1"/>
  <line x1="1584" y1="0" x2="0" y2="396" stroke="#4a9eff" stroke-width="1"/>
  <line x1="1584" y1="99" x2="0" y2="396" stroke="#4a9eff" stroke-width="1"/>
  <line x1="1584" y1="198" x2="0" y2="396" stroke="#4a9eff" stroke-width="1"/>
</g>

<!-- Hex grid background (right half) -->
<g opacity="0.14">
  <!-- Row 1 -->
  <polygon points="1002,30 1048,56 1048,108 1002,134 956,108 956,56" fill="none" stroke="#4a9eff" stroke-width="1.5"/>
  <polygon points="1094,30 1140,56 1140,108 1094,134 1048,108 1048,56" fill="none" stroke="#4a9eff" stroke-width="1.5"/>
  <polygon points="1186,30 1232,56 1232,108 1186,134 1140,108 1140,56" fill="none" stroke="#4a9eff" stroke-width="1.5"/>
  <polygon points="1278,30 1324,56 1324,108 1278,134 1232,108 1232,56" fill="none" stroke="#4a9eff" stroke-width="1.5"/>
  <polygon points="1370,30 1416,56 1416,108 1370,134 1324,108 1324,56" fill="none" stroke="#4a9eff" stroke-width="1.5"/>
  <polygon points="1462,30 1508,56 1508,108 1462,134 1416,108 1416,56" fill="none" stroke="#4a9eff" stroke-width="1.5"/>
  <polygon points="1554,30 1600,56 1600,108 1554,134 1508,108 1508,56" fill="none" stroke="#4a9eff" stroke-width="1.5"/>
  <!-- Row 2 (offset) -->
  <polygon points="956,134 1002,160 1002,212 956,238 910,212 910,160" fill="none" stroke="#4a9eff" stroke-width="1.5"/>
  <polygon points="1048,134 1094,160 1094,212 1048,238 1002,212 1002,160" fill="none" stroke="#4a9eff" stroke-width="1.5"/>
  <polygon points="1140,134 1186,160 1186,212 1140,238 1094,212 1094,160" fill="none" stroke="#4a9eff" stroke-width="1.5"/>
  <polygon points="1232,134 1278,160 1278,212 1232,238 1186,212 1186,160" fill="none" stroke="#4a9eff" stroke-width="1.5"/>
  <polygon points="1324,134 1370,160 1370,212 1324,238 1278,212 1278,160" fill="none" stroke="#4a9eff" stroke-width="1.5"/>
  <polygon points="1416,134 1462,160 1462,212 1416,238 1370,212 1370,160" fill="none" stroke="#4a9eff" stroke-width="1.5"/>
  <polygon points="1508,134 1554,160 1554,212 1508,238 1462,212 1462,160" fill="none" stroke="#4a9eff" stroke-width="1.5"/>
  <!-- Row 3 -->
  <polygon points="1002,238 1048,264 1048,316 1002,342 956,316 956,264" fill="none" stroke="#4a9eff" stroke-width="1.5"/>
  <polygon points="1094,238 1140,264 1140,316 1094,342 1048,316 1048,264" fill="none" stroke="#4a9eff" stroke-width="1.5"/>
  <polygon points="1186,238 1232,264 1232,316 1186,342 1140,316 1140,264" fill="none" stroke="#4a9eff" stroke-width="1.5"/>
  <polygon points="1278,238 1324,264 1324,316 1278,342 1232,316 1232,264" fill="none" stroke="#4a9eff" stroke-width="1.5"/>
  <polygon points="1370,238 1416,264 1416,316 1370,342 1324,316 1324,264" fill="none" stroke="#4a9eff" stroke-width="1.5"/>
  <polygon points="1462,238 1508,264 1508,316 1462,342 1416,316 1416,264" fill="none" stroke="#4a9eff" stroke-width="1.5"/>
</g>

<!-- Highlighted active cells -->
<polygon points="1094,134 1140,160 1140,212 1094,238 1048,212 1048,160" fill="#122a50" stroke="#5baaff" stroke-width="2.5" opacity="0.9"/>
<text x="1094" y="189" text-anchor="middle" font-family="Arial, sans-serif" font-size="18" font-weight="700" fill="#7ec8ff">gNB</text>
<circle cx="1094" cy="198" r="6" fill="#5baaff" opacity="0.9"/>

<polygon points="1278,134 1324,160 1324,212 1278,238 1232,212 1232,160" fill="#122a50" stroke="#5baaff" stroke-width="2.5" opacity="0.9"/>
<text x="1278" y="189" text-anchor="middle" font-family="Arial, sans-serif" font-size="18" font-weight="700" fill="#7ec8ff">eNB</text>
<circle cx="1278" cy="198" r="6" fill="#5baaff" opacity="0.9"/>

<polygon points="1186,30 1232,56 1232,108 1186,134 1140,108 1140,56" fill="#0e2440" stroke="#3a7abf" stroke-width="2" opacity="0.8"/>
<circle cx="1186" cy="82" r="5" fill="#3a7abf" opacity="0.8"/>

<!-- Inter-cell connection lines -->
<line x1="1094" y1="198" x2="1186" y2="82" stroke="#4a9eff" stroke-width="1.2" stroke-dasharray="6,4" opacity="0.4"/>
<line x1="1094" y1="198" x2="1278" y2="198" stroke="#4a9eff" stroke-width="1.2" stroke-dasharray="6,4" opacity="0.4"/>
<line x1="1278" y1="198" x2="1370" y2="82" stroke="#4a9eff" stroke-width="1.2" stroke-dasharray="6,4" opacity="0.35"/>

<!-- PRB signal wave (left-center zone) -->
<path d="M 84 300 Q 130 252 176 268 Q 222 284 268 232 Q 314 180 360 208 Q 406 236 452 196 Q 498 156 544 178 Q 590 200 636 162 Q 682 124 728 152 Q 774 180 800 165"
      fill="none" stroke="#22d3ee" stroke-width="3.5" opacity="0.75"/>

<!-- Congestion threshold line -->
<line x1="84" y1="200" x2="870" y2="200" stroke="#ff6b6b" stroke-width="1.2" stroke-dasharray="8,5" opacity="0.4"/>
<text x="880" y="205" font-family="Arial, sans-serif" font-size="15" fill="#ff6b6b" opacity="0.6">80% PRB</text>

<!-- Alert annotation -->
<circle cx="800" cy="165" r="8" fill="#22d3ee" opacity="0.95"/>
<line x1="800" y1="157" x2="800" y2="105" stroke="#22d3ee" stroke-width="1.5" stroke-dasharray="4,3" opacity="0.6"/>
<rect x="720" y="76" width="194" height="34" rx="6" fill="#0d2d52" stroke="#22d3ee" stroke-width="1.5" opacity="0.95"/>
<text x="817" y="96" text-anchor="middle" font-family="Arial, sans-serif" font-size="15" fill="#22d3ee" font-weight="700">alert fired +112 min early</text>

<!-- Vertical separator -->
<line x1="84" y1="336" x2="900" y2="336" stroke="#1e3a5f" stroke-width="1"/>

<!-- LEFT TEXT BLOCK -->
<!-- Name -->
<text x="84" y="82" font-family="Arial, sans-serif" font-size="52" font-weight="700" fill="#ffffff" letter-spacing="1">Diego A. Miranda</text>

<!-- Title line -->
<text x="88" y="118" font-family="Arial, sans-serif" font-size="22" font-weight="400" fill="#7fb3e8" letter-spacing="3">DATA SCIENTIST  |  RAN &amp; ML SPECIALIST</text>

<!-- Project title -->
<text x="88" y="160" font-family="Arial, sans-serif" font-size="24" font-weight="600" fill="#e2eeff" letter-spacing="0.5">Proactive RAN Congestion Management</text>
<text x="88" y="186" font-family="Arial, sans-serif" font-size="18" font-weight="400" fill="#5a8abf" letter-spacing="1">5G / LTE  |  Time-Series ML  |  SON Automation</text>

<!-- Result badges -->
<rect x="88" y="218" width="164" height="44" rx="6" fill="#0d2d52" stroke="#2563a8" stroke-width="1.5"/>
<text x="170" y="237" text-anchor="middle" font-family="Arial, sans-serif" font-size="11" fill="#7fb3e8">Classification</text>
<text x="170" y="255" text-anchor="middle" font-family="Arial, sans-serif" font-size="17" font-weight="700" fill="#a8d4ff">ROC-AUC 0.958</text>

<rect x="264" y="218" width="144" height="44" rx="6" fill="#0d2d52" stroke="#2563a8" stroke-width="1.5"/>
<text x="336" y="237" text-anchor="middle" font-family="Arial, sans-serif" font-size="11" fill="#7fb3e8">Regression</text>
<text x="336" y="255" text-anchor="middle" font-family="Arial, sans-serif" font-size="17" font-weight="700" fill="#a8d4ff">R² = 0.558</text>

<rect x="420" y="218" width="176" height="44" rx="6" fill="#0d2d52" stroke="#2563a8" stroke-width="1.5"/>
<text x="508" y="237" text-anchor="middle" font-family="Arial, sans-serif" font-size="11" fill="#7fb3e8">Mean lead time</text>
<text x="508" y="255" text-anchor="middle" font-family="Arial, sans-serif" font-size="17" font-weight="700" fill="#a8d4ff">112 minutes</text>

<rect x="608" y="218" width="156" height="44" rx="6" fill="#0d2d52" stroke="#2563a8" stroke-width="1.5"/>
<text x="686" y="237" text-anchor="middle" font-family="Arial, sans-serif" font-size="11" fill="#7fb3e8">Ops recall</text>
<text x="686" y="255" text-anchor="middle" font-family="Arial, sans-serif" font-size="17" font-weight="700" fill="#a8d4ff">Recall = 0.60</text>

<!-- Tech stack footer -->
<text x="88" y="370" font-family="Arial, sans-serif" font-size="16" fill="#2e5280" letter-spacing="1.5">Python  |  LightGBM  |  scikit-learn  |  pandas  |  TimeSeriesSplit  |  GitHub Portfolio</text>

</svg>
